<svg width="32" height="32" viewBox="0 0 32 32" fill="none" xmlns="http://www.w3.org/2000/svg">
<g clip-path="url(#clip0_133_223)">
<path d="M0 24C0 24.943 0.374602 25.8473 1.0414 26.5141C1.70819 27.1809 2.61256 27.5555 3.55556 27.5555H28.4444C29.3874 27.5555 30.2918 27.1809 30.9586 26.5141C31.6254 25.8473 32 24.943 32 24V19.5555H0V24Z" fill="#138808"/>
<path d="M32 12.4445V8.00001C32 7.05702 31.6254 6.15265 30.9586 5.48586C30.2918 4.81906 29.3874 4.44446 28.4444 4.44446H3.55556C2.61256 4.44446 1.70819 4.81906 1.0414 5.48586C0.374602 6.15265 0 7.05702 0 8.00001L0 12.4445H32Z" fill="#FF9933"/>
<path d="M0 12.1484H32V19.8524H0V12.1484Z" fill="#F7F7F7"/>
<path d="M16 19.5556C17.9637 19.5556 19.5556 17.9637 19.5556 16C19.5556 14.0363 17.9637 12.4445 16 12.4445C14.0363 12.4445 12.4445 14.0363 12.4445 16C12.4445 17.9637 14.0363 19.5556 16 19.5556Z" fill="#000080"/>
<path d="M16 19C17.6569 19 19 17.6569 19 16C19 14.3431 17.6569 13 16 13C14.3431 13 13 14.3431 13 16C13 17.6569 14.3431 19 16 19Z" fill="#F7F7F7"/>
<path d="M16.0889 14.8889L16 15.4667L15.9111 14.8889L16 13.1556L16.0889 14.8889ZM15.264 13.2525L15.6267 14.9494L15.8622 15.4845L15.7982 14.904L15.264 13.2525ZM14.5778 13.5369L15.3671 15.0818L15.7333 15.5378L15.5218 14.9929L14.5778 13.5369ZM13.9884 13.9885L15.1511 15.2774L15.6231 15.6231L15.2773 15.1511L13.9884 13.9885ZM13.5369 14.5778L14.9929 15.5218L15.5378 15.7334L15.0818 15.3671L13.5369 14.5778ZM13.2524 15.264L14.904 15.7982L15.4844 15.8622L14.9493 15.6267L13.2524 15.264ZM13.1555 16L14.8889 16.0889L15.4667 16L14.8889 15.9111L13.1555 16ZM13.2524 16.736L14.9493 16.3734L15.4844 16.1378L14.904 16.2018L13.2524 16.736ZM13.5369 17.4222L15.0818 16.6329L15.5378 16.2667L14.9929 16.4782L13.5369 17.4222ZM13.9884 18.0116L15.2773 16.8489L15.6231 16.3769L15.1511 16.7227L13.9884 18.0116ZM14.5778 18.4631L15.5218 17.0071L15.7333 16.4622L15.3671 16.9182L14.5778 18.4631ZM15.264 18.7476L15.7982 17.096L15.8622 16.5156L15.6267 17.0507L15.264 18.7476ZM16 18.8445L16.0889 17.1111L16 16.5334L15.9111 17.1111L16 18.8445ZM16.736 18.7476L16.3733 17.0507L16.1378 16.5156L16.2018 17.096L16.736 18.7476ZM17.4222 18.4631L16.6329 16.9182L16.2667 16.4622L16.4782 17.0071L17.4222 18.4631ZM18.0115 18.0116L16.8489 16.7227L16.3769 16.3769L16.7227 16.8489L18.0115 18.0116ZM18.4631 17.4222L17.0071 16.4782L16.4622 16.2667L16.9182 16.6329L18.4631 17.4222ZM18.7475 16.736L17.096 16.2018L16.5155 16.1378L17.0507 16.3734L18.7475 16.736ZM18.8444 16L17.1111 15.9111L16.5333 16L17.1111 16.0889L18.8444 16ZM18.7475 15.264L17.0507 15.6267L16.5155 15.8622L17.096 15.7982L18.7475 15.264ZM18.4631 14.5778L16.9182 15.3671L16.4622 15.7334L17.0071 15.5218L18.4631 14.5778ZM18.0115 13.9885L16.7227 15.1511L16.3769 15.6231L16.8489 15.2774L18.0115 13.9885ZM17.4222 13.5369L16.4782 14.9929L16.2667 15.5378L16.6329 15.0818L17.4222 13.5369ZM16.736 13.2525L16.2018 14.904L16.1378 15.4845L16.3733 14.9494L16.736 13.2525Z" fill="#6666B3"/>
<path d="M15.6089 13.208C15.7071 13.208 15.7867 13.1284 15.7867 13.0302C15.7867 12.932 15.7071 12.8524 15.6089 12.8524C15.5107 12.8524 15.4311 12.932 15.4311 13.0302C15.4311 13.1284 15.5107 13.208 15.6089 13.208Z" fill="#000080"/>
<path d="M14.8533 13.4106C14.9515 13.4106 15.0311 13.331 15.0311 13.2328C15.0311 13.1346 14.9515 13.0551 14.8533 13.0551C14.7552 13.0551 14.6756 13.1346 14.6756 13.2328C14.6756 13.331 14.7552 13.4106 14.8533 13.4106Z" fill="#000080"/>
<path d="M14.176 13.8009C14.2742 13.8009 14.3538 13.7213 14.3538 13.6231C14.3538 13.5249 14.2742 13.4453 14.176 13.4453C14.0778 13.4453 13.9982 13.5249 13.9982 13.6231C13.9982 13.7213 14.0778 13.8009 14.176 13.8009Z" fill="#000080"/>
<path d="M13.6231 14.3537C13.7213 14.3537 13.8009 14.2741 13.8009 14.1759C13.8009 14.0778 13.7213 13.9982 13.6231 13.9982C13.5249 13.9982 13.4453 14.0778 13.4453 14.1759C13.4453 14.2741 13.5249 14.3537 13.6231 14.3537Z" fill="#000080"/>
<path d="M13.2329 15.0311C13.3311 15.0311 13.4107 14.9515 13.4107 14.8533C13.4107 14.7551 13.3311 14.6755 13.2329 14.6755C13.1347 14.6755 13.0551 14.7551 13.0551 14.8533C13.0551 14.9515 13.1347 15.0311 13.2329 15.0311Z" fill="#000080"/>
<path d="M13.0302 15.7866C13.1284 15.7866 13.208 15.7071 13.208 15.6089C13.208 15.5107 13.1284 15.4311 13.0302 15.4311C12.932 15.4311 12.8524 15.5107 12.8524 15.6089C12.8524 15.7071 12.932 15.7866 13.0302 15.7866Z" fill="#000080"/>
<path d="M13.0302 16.5689C13.1284 16.5689 13.208 16.4893 13.208 16.3911C13.208 16.2929 13.1284 16.2133 13.0302 16.2133C12.932 16.2133 12.8524 16.2929 12.8524 16.3911C12.8524 16.4893 12.932 16.5689 13.0302 16.5689Z" fill="#000080"/>
<path d="M13.2329 17.3244C13.3311 17.3244 13.4107 17.2448 13.4107 17.1467C13.4107 17.0485 13.3311 16.9689 13.2329 16.9689C13.1347 16.9689 13.0551 17.0485 13.0551 17.1467C13.0551 17.2448 13.1347 17.3244 13.2329 17.3244Z" fill="#000080"/>
<path d="M13.6231 18.0017C13.7213 18.0017 13.8009 17.9221 13.8009 17.824C13.8009 17.7258 13.7213 17.6462 13.6231 17.6462C13.5249 17.6462 13.4453 17.7258 13.4453 17.824C13.4453 17.9221 13.5249 18.0017 13.6231 18.0017Z" fill="#000080"/>
<path d="M14.176 18.5547C14.2742 18.5547 14.3538 18.4751 14.3538 18.3769C14.3538 18.2787 14.2742 18.1991 14.176 18.1991C14.0778 18.1991 13.9982 18.2787 13.9982 18.3769C13.9982 18.4751 14.0778 18.5547 14.176 18.5547Z" fill="#000080"/>
<path d="M14.8533 18.9448C14.9515 18.9448 15.0311 18.8653 15.0311 18.7671C15.0311 18.6689 14.9515 18.5893 14.8533 18.5893C14.7552 18.5893 14.6756 18.6689 14.6756 18.7671C14.6756 18.8653 14.7552 18.9448 14.8533 18.9448Z" fill="#000080"/>
<path d="M15.6089 19.1475C15.7071 19.1475 15.7867 19.068 15.7867 18.9698C15.7867 18.8716 15.7071 18.792 15.6089 18.792C15.5107 18.792 15.4311 18.8716 15.4311 18.9698C15.4311 19.068 15.5107 19.1475 15.6089 19.1475Z" fill="#000080"/>
<path d="M16.3911 19.1475C16.4893 19.1475 16.5689 19.068 16.5689 18.9698C16.5689 18.8716 16.4893 18.792 16.3911 18.792C16.2929 18.792 16.2133 18.8716 16.2133 18.9698C16.2133 19.068 16.2929 19.1475 16.3911 19.1475Z" fill="#000080"/>
<path d="M17.1467 18.9448C17.2449 18.9448 17.3245 18.8653 17.3245 18.7671C17.3245 18.6689 17.2449 18.5893 17.1467 18.5893C17.0485 18.5893 16.9689 18.6689 16.9689 18.7671C16.9689 18.8653 17.0485 18.9448 17.1467 18.9448Z" fill="#000080"/>
<path d="M17.824 18.5547C17.9222 18.5547 18.0018 18.4751 18.0018 18.3769C18.0018 18.2787 17.9222 18.1991 17.824 18.1991C17.7258 18.1991 17.6462 18.2787 17.6462 18.3769C17.6462 18.4751 17.7258 18.5547 17.824 18.5547Z" fill="#000080"/>
<path d="M18.3769 18.0017C18.4751 18.0017 18.5547 17.9221 18.5547 17.824C18.5547 17.7258 18.4751 17.6462 18.3769 17.6462C18.2787 17.6462 18.1991 17.7258 18.1991 17.824C18.1991 17.9221 18.2787 18.0017 18.3769 18.0017Z" fill="#000080"/>
<path d="M18.7671 17.3244C18.8653 17.3244 18.9449 17.2448 18.9449 17.1467C18.9449 17.0485 18.8653 16.9689 18.7671 16.9689C18.6689 16.9689 18.5893 17.0485 18.5893 17.1467C18.5893 17.2448 18.6689 17.3244 18.7671 17.3244Z" fill="#000080"/>
<path d="M18.9698 16.5689C19.068 16.5689 19.1475 16.4893 19.1475 16.3911C19.1475 16.2929 19.068 16.2133 18.9698 16.2133C18.8716 16.2133 18.792 16.2929 18.792 16.3911C18.792 16.4893 18.8716 16.5689 18.9698 16.5689Z" fill="#000080"/>
<path d="M18.9698 15.7866C19.068 15.7866 19.1475 15.7071 19.1475 15.6089C19.1475 15.5107 19.068 15.4311 18.9698 15.4311C18.8716 15.4311 18.792 15.5107 18.792 15.6089C18.792 15.7071 18.8716 15.7866 18.9698 15.7866Z" fill="#000080"/>
<path d="M18.7671 15.0311C18.8653 15.0311 18.9449 14.9515 18.9449 14.8533C18.9449 14.7551 18.8653 14.6755 18.7671 14.6755C18.6689 14.6755 18.5893 14.7551 18.5893 14.8533C18.5893 14.9515 18.6689 15.0311 18.7671 15.0311Z" fill="#000080"/>
<path d="M18.3769 14.3537C18.4751 14.3537 18.5547 14.2741 18.5547 14.1759C18.5547 14.0778 18.4751 13.9982 18.3769 13.9982C18.2787 13.9982 18.1991 14.0778 18.1991 14.1759C18.1991 14.2741 18.2787 14.3537 18.3769 14.3537Z" fill="#000080"/>
<path d="M17.824 13.8009C17.9222 13.8009 18.0018 13.7213 18.0018 13.6231C18.0018 13.5249 17.9222 13.4453 17.824 13.4453C17.7258 13.4453 17.6462 13.5249 17.6462 13.6231C17.6462 13.7213 17.7258 13.8009 17.824 13.8009Z" fill="#000080"/>
<path d="M17.1467 13.4106C17.2449 13.4106 17.3245 13.331 17.3245 13.2328C17.3245 13.1346 17.2449 13.0551 17.1467 13.0551C17.0485 13.0551 16.9689 13.1346 16.9689 13.2328C16.9689 13.331 17.0485 13.4106 17.1467 13.4106Z" fill="#000080"/>
<path d="M16.3911 13.208C16.4893 13.208 16.5689 13.1284 16.5689 13.0302C16.5689 12.932 16.4893 12.8524 16.3911 12.8524C16.2929 12.8524 16.2133 12.932 16.2133 13.0302C16.2133 13.1284 16.2929 13.208 16.3911 13.208Z" fill="#000080"/>
<path d="M16 16.8C16.4418 16.8 16.8 16.4418 16.8 16C16.8 15.5581 16.4418 15.2 16 15.2C15.5582 15.2 15.2 15.5581 15.2 16C15.2 16.4418 15.5582 16.8 16 16.8Z" fill="#000080"/>
</g>
<defs>
<clipPath id="clip0_133_223">
<rect width="32" height="32" fill="white"/>
</clipPath>
</defs>
</svg>
