<svg width="381" height="366" viewBox="0 0 381 366" fill="none" xmlns="http://www.w3.org/2000/svg">
<g filter="url(#filter0_d_133_307)">
<rect x="4" y="4" width="373" height="358" rx="20" fill="white" fill-opacity="0.6" shape-rendering="crispEdges"/>
<rect x="69" y="137" width="243" height="92" rx="16" fill="#CFA063"/>
<rect x="70" y="138" width="241" height="90" rx="15" stroke="white" stroke-opacity="0.4" stroke-width="2"/>
<path d="M114.299 176.24C109.427 176.24 106.691 174.32 106.691 170.576V170.432H110.291V170.864C110.291 172.352 111.035 172.952 114.299 172.952C117.179 172.952 117.851 172.52 117.851 171.44C117.851 170.456 117.299 170.096 115.643 169.808L111.131 169.16C108.251 168.704 106.547 167.264 106.547 164.648C106.547 162.224 108.515 159.68 113.915 159.68C118.859 159.68 121.163 161.96 121.163 165.344V165.488H117.539V165.152C117.539 163.616 116.747 162.968 113.555 162.968C110.963 162.968 110.171 163.472 110.171 164.504C110.171 165.44 110.699 165.776 112.043 166.016L116.555 166.736C120.155 167.312 121.451 169.064 121.451 171.272C121.451 173.888 119.411 176.24 114.299 176.24ZM127.885 176.24C124.501 176.24 122.893 174.152 122.893 171.464V163.976H126.493V170.264C126.493 172.208 127.309 173.024 129.589 173.024C131.941 173.024 132.781 172.112 132.781 170.072V163.976H136.381V176H133.021V172.328H132.829C132.517 174.344 131.053 176.24 127.885 176.24ZM141.558 176H138.222V159.92H141.822V167.168H142.014C142.422 165.152 143.886 163.736 146.742 163.736C150.342 163.736 152.358 166.16 152.358 170C152.358 173.792 150.318 176.24 146.574 176.24C143.79 176.24 142.206 175.04 141.774 172.664H141.558V176ZM141.822 170.072C141.822 172.16 143.046 172.952 145.326 172.952C147.654 172.952 148.71 172.184 148.71 170C148.71 167.792 147.654 167.024 145.35 167.024C143.022 167.024 141.822 167.792 141.822 169.88V170.072ZM159.927 176.24C155.871 176.24 153.639 174.656 153.639 171.872V171.8H157.239V172.016C157.239 173.096 157.911 173.384 159.951 173.384C161.871 173.384 162.327 173.072 162.327 172.352C162.327 171.68 161.967 171.488 160.551 171.296L157.167 170.888C154.767 170.624 153.423 169.544 153.423 167.528C153.423 165.416 155.223 163.736 159.351 163.736C163.287 163.736 165.519 165.224 165.519 168.152V168.224H161.919V168.08C161.919 167.096 161.439 166.592 159.231 166.592C157.431 166.592 156.975 166.904 156.975 167.672C156.975 168.296 157.311 168.56 158.895 168.752L161.463 169.064C164.679 169.424 165.879 170.504 165.879 172.496C165.879 174.752 163.647 176.24 159.927 176.24ZM173.739 176.24C169.611 176.24 166.971 173.792 166.971 170C166.971 166.16 169.611 163.736 173.739 163.736C177.603 163.736 180.243 165.8 180.243 168.92V169.256H176.667V169.064C176.667 167.528 175.539 166.976 173.667 166.976C171.531 166.976 170.547 167.768 170.547 170C170.547 172.208 171.531 173 173.667 173C175.539 173 176.667 172.448 176.667 170.912V170.72H180.243V171.056C180.243 174.152 177.603 176.24 173.739 176.24ZM185.392 176H181.792V163.976H185.128V167.168H185.344C185.68 165.224 186.952 163.736 189.376 163.736C192.064 163.736 193.168 165.584 193.168 167.936V169.928H189.568V168.68C189.568 167.36 189.04 166.784 187.576 166.784C185.968 166.784 185.392 167.528 185.392 169.04V176ZM198.072 162.752H194.472V159.92H198.072V162.752ZM198.072 176H194.472V163.976H198.072V176ZM203.292 176H199.956V159.92H203.556V167.168H203.748C204.156 165.152 205.62 163.736 208.476 163.736C212.076 163.736 214.092 166.16 214.092 170C214.092 173.792 212.052 176.24 208.308 176.24C205.524 176.24 203.94 175.04 203.508 172.664H203.292V176ZM203.556 170.072C203.556 172.16 204.78 172.952 207.06 172.952C209.388 172.952 210.444 172.184 210.444 170C210.444 167.792 209.388 167.024 207.084 167.024C204.756 167.024 203.556 167.792 203.556 169.88V170.072ZM221.973 176.24C217.965 176.24 215.229 174.272 215.229 170C215.229 166.16 217.941 163.736 221.901 163.736C225.837 163.736 228.453 165.8 228.453 169.568C228.453 170 228.405 170.312 228.357 170.72H218.565C218.661 172.568 219.525 173.36 221.853 173.36C223.989 173.36 224.733 172.808 224.733 171.776V171.536H228.333V171.8C228.333 174.416 225.789 176.24 221.973 176.24ZM221.829 166.544C219.693 166.544 218.781 167.264 218.613 168.824H224.997C224.901 167.24 223.941 166.544 221.829 166.544ZM242.155 176H239.179C236.371 176 234.667 174.68 234.667 171.656V166.952H232.771V163.976H234.667V161.648H238.267V163.976H242.155V166.952H238.267V171.248C238.267 172.448 238.723 172.76 239.995 172.76H242.155V176ZM249.911 176.24C245.807 176.24 243.047 173.792 243.047 170C243.047 166.16 245.807 163.736 249.911 163.736C254.015 163.736 256.775 166.16 256.775 170C256.775 173.792 254.015 176.24 249.911 176.24ZM249.911 173.048C252.335 173.048 253.199 172.112 253.199 170C253.199 167.888 252.335 166.904 249.911 166.904C247.463 166.904 246.623 167.888 246.623 170C246.623 172.112 247.463 173.048 249.911 173.048ZM265.644 176.24C263.052 176.24 261.492 175.04 261.492 173.024C261.492 171.248 262.812 170.144 265.38 169.88L270.54 169.352V168.896C270.54 167.336 269.844 166.904 267.924 166.904C266.1 166.904 265.356 167.384 265.356 168.752V168.848H261.732V168.776C261.732 165.8 264.228 163.736 268.188 163.736C272.196 163.736 274.092 165.8 274.092 168.944V176H270.732V173.24H270.54C269.988 175.112 268.308 176.24 265.644 176.24ZM265.116 172.784C265.116 173.432 265.62 173.696 266.676 173.696C269.124 173.696 270.444 173.12 270.54 171.416L266.364 171.896C265.5 171.968 265.116 172.208 265.116 172.784ZM105.564 206H101.964V189.92H115.572V193.16H105.564V196.784H115.212V200H105.564V206ZM120.705 206H117.105V193.976H120.441V197.168H120.657C120.993 195.224 122.265 193.736 124.689 193.736C127.377 193.736 128.481 195.584 128.481 197.936V199.928H124.881V198.68C124.881 197.36 124.353 196.784 122.889 196.784C121.281 196.784 120.705 197.528 120.705 199.04V206ZM136.168 206.24C132.16 206.24 129.424 204.272 129.424 200C129.424 196.16 132.136 193.736 136.096 193.736C140.032 193.736 142.648 195.8 142.648 199.568C142.648 200 142.6 200.312 142.552 200.72H132.76C132.856 202.568 133.72 203.36 136.048 203.36C138.184 203.36 138.928 202.808 138.928 201.776V201.536H142.528V201.8C142.528 204.416 139.984 206.24 136.168 206.24ZM136.024 196.544C133.888 196.544 132.976 197.264 132.808 198.824H139.192C139.096 197.24 138.136 196.544 136.024 196.544ZM150.559 206.24C146.551 206.24 143.815 204.272 143.815 200C143.815 196.16 146.527 193.736 150.487 193.736C154.423 193.736 157.039 195.8 157.039 199.568C157.039 200 156.991 200.312 156.943 200.72H147.151C147.247 202.568 148.111 203.36 150.439 203.36C152.575 203.36 153.319 202.808 153.319 201.776V201.536H156.919V201.8C156.919 204.416 154.375 206.24 150.559 206.24ZM150.415 196.544C148.279 196.544 147.367 197.264 147.199 198.824H153.583C153.487 197.24 152.527 196.544 150.415 196.544ZM162.165 206H158.565V193.976H161.901V197.624H162.093C162.381 195.608 163.581 193.736 166.605 193.736C169.389 193.736 170.805 195.44 171.069 197.672H171.285C171.573 195.632 172.797 193.736 175.893 193.736C178.989 193.736 180.501 195.776 180.501 198.512V206H176.901V199.712C176.901 197.72 176.205 196.976 174.141 196.976C171.957 196.976 171.333 197.84 171.333 199.928V206H167.733V199.712C167.733 197.72 167.037 196.976 164.973 196.976C162.789 196.976 162.165 197.84 162.165 199.928V206ZM185.931 192.752H182.331V189.92H185.931V192.752ZM185.931 206H182.331V193.976H185.931V206ZM192.783 206.24C189.399 206.24 187.791 204.152 187.791 201.464V193.976H191.391V200.264C191.391 202.208 192.207 203.024 194.487 203.024C196.839 203.024 197.679 202.112 197.679 200.072V193.976H201.279V206H197.919V202.328H197.727C197.415 204.344 195.951 206.24 192.783 206.24ZM206.72 206H203.12V193.976H206.456V197.624H206.648C206.936 195.608 208.136 193.736 211.16 193.736C213.944 193.736 215.36 195.44 215.624 197.672H215.84C216.128 195.632 217.352 193.736 220.448 193.736C223.544 193.736 225.056 195.776 225.056 198.512V206H221.456V199.712C221.456 197.72 220.76 196.976 218.696 196.976C216.512 196.976 215.888 197.84 215.888 199.928V206H212.288V199.712C212.288 197.72 211.592 196.976 209.528 196.976C207.344 196.976 206.72 197.84 206.72 199.928V206ZM234.189 206H230.589V189.92H238.989C242.709 189.92 245.109 192.032 245.109 195.728C245.109 199.424 242.709 201.56 238.989 201.56H234.189V206ZM238.605 193.16H234.189V198.32H238.605C240.597 198.32 241.533 197.744 241.533 195.728C241.533 193.76 240.597 193.16 238.605 193.16ZM249.986 206H246.386V189.92H249.986V206ZM255.566 206.24C252.974 206.24 251.414 205.04 251.414 203.024C251.414 201.248 252.734 200.144 255.302 199.88L260.462 199.352V198.896C260.462 197.336 259.766 196.904 257.846 196.904C256.022 196.904 255.278 197.384 255.278 198.752V198.848H251.654V198.776C251.654 195.8 254.15 193.736 258.11 193.736C262.118 193.736 264.014 195.8 264.014 198.944V206H260.654V203.24H260.462C259.91 205.112 258.23 206.24 255.566 206.24ZM255.038 202.784C255.038 203.432 255.542 203.696 256.598 203.696C259.046 203.696 260.366 203.12 260.462 201.416L256.286 201.896C255.422 201.968 255.038 202.208 255.038 202.784ZM269.439 206H265.839V193.976H269.175V197.672H269.391C269.703 195.656 271.143 193.736 274.287 193.736C277.575 193.736 279.135 195.848 279.135 198.512V206H275.535V199.712C275.535 197.792 274.743 196.976 272.535 196.976C270.255 196.976 269.439 197.888 269.439 199.928V206Z" fill="white"/>
</g>
<defs>
<filter id="filter0_d_133_307" x="0" y="0" width="381" height="366" filterUnits="userSpaceOnUse" color-interpolation-filters="sRGB">
<feFlood flood-opacity="0" result="BackgroundImageFix"/>
<feColorMatrix in="SourceAlpha" type="matrix" values="0 0 0 0 0 0 0 0 0 0 0 0 0 0 0 0 0 0 127 0" result="hardAlpha"/>
<feOffset/>
<feGaussianBlur stdDeviation="2"/>
<feComposite in2="hardAlpha" operator="out"/>
<feColorMatrix type="matrix" values="0 0 0 0 0 0 0 0 0 0 0 0 0 0 0 0 0 0 0.25 0"/>
<feBlend mode="normal" in2="BackgroundImageFix" result="effect1_dropShadow_133_307"/>
<feBlend mode="normal" in="SourceGraphic" in2="effect1_dropShadow_133_307" result="shape"/>
</filter>
</defs>
</svg>
